<svg width="13" height="12" viewBox="0 0 13 12" fill="none" xmlns="http://www.w3.org/2000/svg">
<g id="mdi:office-building">
<path id="Vector" d="M2.69412 1.5V10.5H5.92708V8.75H7.00473V10.5H10.2377V1.5H2.69412ZM3.77177 2.5H4.84943V3.5H3.77177V2.5ZM5.92708 2.5H7.00473V3.5H5.92708V2.5ZM8.08238 2.5H9.16003V3.5H8.08238V2.5ZM3.77177 4.5H4.84943V5.5H3.77177V4.5ZM5.92708 4.5H7.00473V5.5H5.92708V4.5ZM8.08238 4.5H9.16003V5.5H8.08238V4.5ZM3.77177 6.5H4.84943V7.5H3.77177V6.5ZM5.92708 6.5H7.00473V7.5H5.92708V6.5ZM8.08238 6.5H9.16003V7.5H8.08238V6.5ZM3.77177 8.5H4.84943V9.5H3.77177V8.5ZM8.08238 8.5H9.16003V9.5H8.08238V8.5Z" fill="#A7A7A7"/>
</g>
</svg>
